<svg width="70" height="70" viewBox="0 0 70 70" fill="none" xmlns="http://www.w3.org/2000/svg">
<rect x="0.5" y="0.5" width="69" height="69" rx="34.5" fill="white"/>
<path d="M29.62 33.79C31.06 36.62 33.38 38.94 36.21 40.38L38.41 38.18C38.69 37.9 39.08 37.82 39.43 37.93C40.55 38.3 41.75 38.5 43 38.5C43.2652 38.5 43.5196 38.6054 43.7071 38.7929C43.8946 38.9804 44 39.2348 44 39.5V43C44 43.2652 43.8946 43.5196 43.7071 43.7071C43.5196 43.8946 43.2652 44 43 44C38.4913 44 34.1673 42.2089 30.9792 39.0208C27.7911 35.8327 26 31.5087 26 27C26 26.7348 26.1054 26.4804 26.2929 26.2929C26.4804 26.1054 26.7348 26 27 26H30.5C30.7652 26 31.0196 26.1054 31.2071 26.2929C31.3946 26.4804 31.5 26.7348 31.5 27C31.5 28.25 31.7 29.45 32.07 30.57C32.18 30.92 32.1 31.31 31.82 31.59L29.62 33.79Z" fill="#64253A"/>
<rect x="0.5" y="0.5" width="69" height="69" rx="34.5" stroke="#EEEEEE"/>
</svg>
