<svg width="36" height="36" viewBox="0 0 36 36" fill="none" xmlns="http://www.w3.org/2000/svg">
<circle cx="18" cy="18" r="18" fill="white"/>
<path d="M18 10C13.6 10 10 13.6064 10 18.0482C10 22.0643 12.928 25.3976 16.752 26V20.3775H14.72V18.0482H16.752V16.2731C16.752 14.257 17.944 13.1486 19.776 13.1486C20.648 13.1486 21.56 13.3012 21.56 13.3012V15.2851H20.552C19.56 15.2851 19.248 15.9036 19.248 16.5382V18.0482H21.472L21.112 20.3775H19.248V26C21.1331 25.7011 22.8497 24.7354 24.0879 23.2772C25.3261 21.819 26.0043 19.9644 26 18.0482C26 13.6064 22.4 10 18 10Z" fill="#64253A"/>
</svg>
