<svg width="36" height="36" viewBox="0 0 36 36" fill="none" xmlns="http://www.w3.org/2000/svg">
<circle cx="18" cy="18" r="18" fill="white"/>
<path d="M28 17.1429H26.2727V15.4286H24.5455V17.1429H22.8182V18.8571H24.5455V20.5714H26.2727V18.8571H28M15.0455 17.1429V19.2H18.5C18.3273 20.0571 17.4636 21.7714 15.0455 21.7714C12.9727 21.7714 11.3318 20.0571 11.3318 18C11.3318 15.9429 12.9727 14.2286 15.0455 14.2286C16.2545 14.2286 17.0318 14.7429 17.4636 15.1714L19.1045 13.6286C18.0682 12.6 16.6864 12 15.0455 12C11.6773 12 9 14.6571 9 18C9 21.3429 11.6773 24 15.0455 24C18.5 24 20.8318 21.6 20.8318 18.1714C20.8318 17.7429 20.8318 17.4857 20.7455 17.1429H15.0455Z" fill="#64253A"/>
</svg>
