<svg width="36" height="36" viewBox="0 0 36 36" fill="none" xmlns="http://www.w3.org/2000/svg">
<circle cx="18" cy="18" r="18" fill="white"/>
<path d="M25.2222 10C25.6937 10 26.1459 10.1873 26.4793 10.5207C26.8127 10.8541 27 11.3063 27 11.7778V24.2222C27 24.6937 26.8127 25.1459 26.4793 25.4793C26.1459 25.8127 25.6937 26 25.2222 26H12.7778C12.3063 26 11.8541 25.8127 11.5207 25.4793C11.1873 25.1459 11 24.6937 11 24.2222V11.7778C11 11.3063 11.1873 10.8541 11.5207 10.5207C11.8541 10.1873 12.3063 10 12.7778 10H25.2222ZM24.7778 23.7778V19.0667C24.7778 18.2981 24.4725 17.5611 23.929 17.0176C23.3856 16.4742 22.6485 16.1689 21.88 16.1689C21.1244 16.1689 20.2444 16.6311 19.8178 17.3244V16.3378H17.3378V23.7778H19.8178V19.3956C19.8178 18.7111 20.3689 18.1511 21.0533 18.1511C21.3834 18.1511 21.6999 18.2822 21.9333 18.5156C22.1667 18.749 22.2978 19.0655 22.2978 19.3956V23.7778H24.7778ZM14.4489 14.9422C14.8449 14.9422 15.2248 14.7849 15.5048 14.5048C15.7849 14.2248 15.9422 13.8449 15.9422 13.4489C15.9422 12.6222 15.2756 11.9467 14.4489 11.9467C14.0505 11.9467 13.6684 12.1049 13.3867 12.3867C13.1049 12.6684 12.9467 13.0505 12.9467 13.4489C12.9467 14.2756 13.6222 14.9422 14.4489 14.9422ZM15.6844 23.7778V16.3378H13.2222V23.7778H15.6844Z" fill="#64253A"/>
</svg>
