<svg width="36" height="36" viewBox="0 0 36 36" fill="none" xmlns="http://www.w3.org/2000/svg">
<circle cx="18" cy="18" r="18" fill="white"/>
<path d="M27 12.5294C26.3743 12.7971 25.6998 12.9729 25.001 13.0571C25.7161 12.6518 26.2686 12.0094 26.5287 11.2371C25.8542 11.6194 25.1066 11.8871 24.3184 12.04C23.6764 11.3824 22.7744 11 21.7505 11C19.8408 11 18.2806 12.4682 18.2806 14.2806C18.2806 14.5406 18.3131 14.7929 18.37 15.03C15.4771 14.8924 12.9011 13.5847 11.1864 11.6041C10.8858 12.0859 10.7151 12.6518 10.7151 13.2482C10.7151 14.3876 11.3246 15.3971 12.2672 15.9706C11.6902 15.9706 11.1539 15.8176 10.6826 15.5882C10.6826 15.5882 10.6826 15.5882 10.6826 15.6112C10.6826 17.2018 11.8853 18.5324 13.478 18.8306C13.1855 18.9071 12.8767 18.9453 12.5598 18.9453C12.3403 18.9453 12.1209 18.9224 11.9097 18.8841C12.3485 20.1765 13.6243 21.14 15.1601 21.1629C13.9737 22.05 12.4704 22.57 10.8289 22.57C10.5526 22.57 10.2763 22.5547 10 22.5241C11.544 23.4571 13.3805 24 15.347 24C21.7505 24 25.2691 18.9988 25.2691 14.6629C25.2691 14.5176 25.2691 14.38 25.261 14.2347C25.9436 13.7759 26.5287 13.1947 27 12.5294Z" fill="#64253A"/>
</svg>
